<svg xmlns="http://www.w3.org/2000/svg" viewBox="0 0 24 24">
  <symbol id="icon" viewBox="0 0 24 24">
    <path fill="none" stroke="currentColor" stroke-linecap="round" stroke-linejoin="round" stroke-width="1.8" d="M8 5c1.3 0 2 1.1 1.8 2.4l-.3 1.8c-.2 1.1-1.1 1.8-2.2 1.6S5.5 9.6 5.7 8.5L6 6.7C6.2 5.7 6.9 5 8 5Z"/>
    <path fill="none" stroke="currentColor" stroke-linecap="round" stroke-linejoin="round" stroke-width="1.8" d="M16.5 13.2c1.3.2 1.9 1.4 1.5 2.7l-.6 1.7c-.4 1-1.4 1.6-2.5 1.2s-1.6-1.4-1.3-2.5l.6-1.7c.4-1 1.2-1.6 2.3-1.4Z"/>
    <path fill="none" stroke="currentColor" stroke-linecap="round" stroke-linejoin="round" stroke-width="1.8" d="M12.2 3.8l.6 2.2M10.8 14.6l-.7 2.1"/>
  </symbol>
</svg>
