<svg xmlns="http://www.w3.org/2000/svg" viewBox="0 0 24 24"><symbol id="icon" viewBox="0 0 24 24"><path fill="none" stroke="currentColor" stroke-linecap="round" stroke-linejoin="round" stroke-width="1.8" d="M4 19h16M6 16.5c2.2-.9 4-.9 6 0 1.8.8 3.8.8 6 0"/><path fill="none" stroke="currentColor" stroke-linecap="round" stroke-linejoin="round" stroke-width="1.8" d="M8 16c-1.7-.4-2.8-1.5-2.8-3 0-1.4 1.1-2.4 2.5-2.5.4-1.6 1.7-2.7 3.3-2.7 1.5 0 2.8 1 3.2 2.4 1.7.1 3 1.2 3 2.8 0 1.5-1.1 2.6-2.8 3"/><path fill="none" stroke="currentColor" stroke-linecap="round" stroke-linejoin="round" stroke-width="1.8" d="M11.2 16v-4.5M9.2 13.2l2 2 2.2-2.2"/></symbol></svg>
